<svg width="120" height="32" viewBox="0 0 120 32" fill="none" xmlns="http://www.w3.org/2000/svg">
  <!-- Unitank icon mark -->
  <path d="M3 5.5C3 4.4 3.9 3.5 5 3.5L17 3.5C18.1 3.5 19 4.4 19 5.5L19 17L11 26L3 17L3 5.5" stroke="currentColor" stroke-width="2" stroke-linecap="round" stroke-linejoin="round"/>
  <line x1="4.5" y1="19.5" x2="4.5" y2="28.5" stroke="currentColor" stroke-width="2" stroke-linecap="round"/>
  <line x1="17.5" y1="19.5" x2="17.5" y2="28.5" stroke="currentColor" stroke-width="2" stroke-linecap="round"/>
  <!-- M letterform -->
  <path d="M30 26V6l7 12L44 6v20" stroke="currentColor" stroke-width="2.6" stroke-linecap="round" stroke-linejoin="round"/>
  <!-- G letterform -->
  <path d="M62 11c-1.8-2.5-4.5-4-7.5-4-5 0-8.5 4.2-8.5 9s3.5 9 8.5 9c4 0 7-2.8 8-6.5h-5.5" stroke="currentColor" stroke-width="2.6" stroke-linecap="round" stroke-linejoin="round"/>
  <!-- R letterform -->
  <path d="M70 26V6h7c3.5 0 6 2 6 5.5S80.5 17 77 17h-7M74 17l6.5 9" stroke="currentColor" stroke-width="2.6" stroke-linecap="round" stroke-linejoin="round"/>
</svg>
